<?xml version="1.0" encoding="UTF-8" standalone="no"?>
<svg
   width="1028.2627"
   zoomAndPan="magnify"
   viewBox="0 0 771.19702 152.05624"
   height="202.74165"
   preserveAspectRatio="xMidYMid"
   version="1.0"
   id="svg45"
   sodipodi:docname="mnns-banner.svg"
   xmlns:inkscape="http://www.inkscape.org/namespaces/inkscape"
   xmlns:sodipodi="http://sodipodi.sourceforge.net/DTD/sodipodi-0.dtd"
   xmlns="http://www.w3.org/2000/svg"
   xmlns:svg="http://www.w3.org/2000/svg">
  <sodipodi:namedview
     id="namedview45"
     pagecolor="#ffffff"
     bordercolor="#000000"
     borderopacity="0.25"
     inkscape:showpageshadow="2"
     inkscape:pageopacity="0.0"
     inkscape:pagecheckerboard="0"
     inkscape:deskcolor="#d1d1d1" />
  <defs
     id="defs1">
    <g
       id="g1" />
  </defs>
  <path
     stroke-linecap="butt"
     fill="none"
     stroke-linejoin="miter"
     d="M 134.57876,39.942223 24.371806,102.75088"
     stroke="#56aeff"
     stroke-width="5.99385"
     stroke-opacity="1"
     stroke-miterlimit="4"
     id="path1" />
  <path
     stroke-linecap="round"
     fill="none"
     stroke-linejoin="round"
     d="m 155.95375,38.10627 -15.62108,8.902353 -8.9063,-15.621064 15.62501,-8.902327 z m 0,0"
     stroke="#56aeff"
     stroke-width="5.99385"
     stroke-opacity="1"
     stroke-miterlimit="4"
     id="path2" />
  <path
     stroke-linecap="round"
     fill="none"
     stroke-linejoin="round"
     d="M 11.899168,120.20792 27.520251,111.30166 18.617899,95.680577 2.9968146,104.58293 Z m 0,0"
     stroke="#56aeff"
     stroke-width="5.99385"
     stroke-opacity="1"
     stroke-miterlimit="4"
     id="path3" />
  <path
     stroke-linecap="butt"
     fill="none"
     stroke-linejoin="miter"
     d="M 128.66468,127.77033 140.09827,91.840633"
     stroke="#ffffff"
     stroke-width="5.99385"
     stroke-opacity="1"
     stroke-miterlimit="4"
     id="path4" />
  <path
     stroke-linecap="round"
     fill="none"
     stroke-linejoin="round"
     d="m 114.19202,143.61017 5.45313,-17.13672 17.13281,5.45314 -5.4492,17.13282 z m 0,0"
     stroke="#ffffff"
     stroke-width="5.99385"
     stroke-opacity="1"
     stroke-miterlimit="4"
     id="path5" />
  <path
     stroke-linecap="round"
     fill="none"
     stroke-linejoin="round"
     d="m 137.43421,70.551566 -5.44922,17.136724 17.13281,5.453133 5.45312,-17.136724 z m 0,0"
     stroke="#ffffff"
     stroke-width="5.99385"
     stroke-opacity="1"
     stroke-miterlimit="4"
     id="path6" />
  <path
     stroke-linecap="butt"
     fill="none"
     stroke-linejoin="miter"
     d="M 145.88734,116.40704 63.563139,53.891386"
     stroke="#f68712"
     stroke-width="5.99385"
     stroke-opacity="1"
     stroke-miterlimit="4"
     id="path7" />
  <path
     stroke-linecap="round"
     fill="none"
     stroke-linejoin="round"
     d="m 155.96156,135.34845 -14.32031,-10.875 10.875,-14.32031 14.32031,10.875 z m 0,0"
     stroke="#f68712"
     stroke-width="5.99385"
     stroke-opacity="1"
     stroke-miterlimit="4"
     id="path8" />
  <path
     stroke-linecap="round"
     fill="none"
     stroke-linejoin="round"
     d="M 42.610018,49.274193 56.930329,60.145291 67.805331,45.824978 53.485023,34.949975 Z m 0,0"
     stroke="#f68712"
     stroke-width="5.99385"
     stroke-opacity="1"
     stroke-miterlimit="4"
     id="path9" />
  <path
     stroke-linecap="butt"
     fill="none"
     stroke-linejoin="miter"
     d="M 94.359992,108.69611 102.46546,23.239088"
     stroke="#ffffff"
     stroke-width="5.99385"
     stroke-opacity="1"
     stroke-miterlimit="4"
     id="path10" />
  <path
     stroke-linecap="round"
     fill="none"
     stroke-linejoin="round"
     d="m 83.57093,127.23908 1.695312,-17.89844 17.902338,1.69532 -1.69922,17.90234 z m 0,0"
     stroke="#ffffff"
     stroke-width="5.99385"
     stroke-opacity="1"
     stroke-miterlimit="4"
     id="path11" />
  <path
     stroke-linecap="round"
     fill="none"
     stroke-linejoin="round"
     d="m 95.356088,2.9969013 -1.699218,17.8984327 17.90236,1.699003 1.69532,-17.9023403 z m 0,0"
     stroke="#ffffff"
     stroke-width="5.99385"
     stroke-opacity="1"
     stroke-miterlimit="4"
     id="path12" />
  <path
     stroke-linecap="butt"
     fill="none"
     stroke-linejoin="miter"
     d="M 50.184206,127.42266 27.731067,61.57497"
     stroke="#ffffff"
     stroke-width="5.99386"
     stroke-opacity="1"
     stroke-miterlimit="4"
     id="path13" />
  <path
     stroke-linecap="round"
     fill="none"
     stroke-linejoin="round"
     d="m 47.957643,148.75861 -5.800787,-17.01954 17.019531,-5.80081 5.800815,17.01953 z m 0,0"
     stroke="#ffffff"
     stroke-width="5.99386"
     stroke-opacity="1"
     stroke-miterlimit="4"
     id="path14" />
  <path
     stroke-linecap="round"
     fill="none"
     stroke-linejoin="round"
     d="M 12.934183,46.035898 18.738872,63.055437 35.7585,57.254906 29.953804,40.235369 Z m 0,0"
     stroke="#ffffff"
     stroke-width="5.99386"
     stroke-opacity="1"
     stroke-miterlimit="4"
     id="path15" />
  <g
     fill="#ffffff"
     fill-opacity="1"
     id="g18"
     transform="translate(-113.45641,-168.22576)">
    <g
       transform="translate(298.1695,276.13182)"
       id="g17">
      <g
         id="g16">
        <path
           d="M 6.859375,0 V -64.890625 H 15.9375 l 23.375,45.234375 23.171875,-45.234375 H 71.65625 V 0 H 63.875 v -50.984375 l -21.6875,41.71875 h -5.84375 l -21.703125,-41.625 V 0 Z m 0,0"
           id="path16" />
      </g>
    </g>
  </g>
  <g
     fill="#ffffff"
     fill-opacity="1"
     id="g21"
     transform="translate(-113.45641,-168.22576)">
    <g
       transform="translate(377.14481,276.13182)"
       id="g20">
      <g
         id="g19">
        <path
           d="m 27.0625,1.109375 c -4.386719,0 -8.277344,-1 -11.671875,-3 C 11.992188,-3.898438 9.320312,-6.695312 7.375,-10.28125 5.425781,-13.875 4.453125,-18.109375 4.453125,-22.984375 c 0,-4.820313 0.957031,-9.039063 2.875,-12.65625 1.914063,-3.613281 4.585937,-6.425781 8.015625,-8.4375 3.425781,-2.007813 7.394531,-3.015625 11.90625,-3.015625 4.445312,0 8.289062,1.007812 11.53125,3.015625 3.25,2.011719 5.738281,4.65625 7.46875,7.9375 1.738281,3.273437 2.609375,6.789063 2.609375,10.546875 0,0.6875 -0.01563,1.371094 -0.04687,2.046875 -0.03125,0.679687 -0.04687,1.449219 -0.04687,2.3125 h -36.625 c 0.1875,3.53125 1.003906,6.453125 2.453125,8.765625 1.457031,2.3125 3.28125,4.058594 5.46875,5.234375 2.195312,1.179687 4.53125,1.765625 7,1.765625 3.21875,0 5.90625,-0.738281 8.0625,-2.21875 2.164062,-1.488281 3.742188,-3.5 4.734375,-6.03125 H 47.5625 c -1.242188,4.261719 -3.605469,7.796875 -7.09375,10.609375 -3.492188,2.8125 -7.960938,4.21875 -13.40625,4.21875 z m 0,-41.625 c -3.710938,0 -7,1.132813 -9.875,3.390625 -2.867188,2.25 -4.515625,5.542969 -4.953125,9.875 H 41.15625 c -0.1875,-4.144531 -1.609375,-7.390625 -4.265625,-9.734375 -2.65625,-2.351563 -5.933594,-3.53125 -9.828125,-3.53125 z m 0,0"
           id="path18" />
      </g>
    </g>
  </g>
  <g
     fill="#ffffff"
     fill-opacity="1"
     id="g24"
     transform="translate(-113.45641,-168.22576)">
    <g
       transform="translate(430.3512,276.13182)"
       id="g23">
      <g
         id="g22">
        <path
           d="M 6.390625,0 V -45.984375 H 13.4375 L 14,-39.3125 c 1.476562,-2.46875 3.453125,-4.378906 5.921875,-5.734375 2.476563,-1.363281 5.265625,-2.046875 8.359375,-2.046875 3.644531,0 6.78125,0.746094 9.40625,2.234375 2.625,1.480469 4.644531,3.734375 6.0625,6.765625 1.613281,-2.78125 3.828125,-4.972656 6.640625,-6.578125 2.8125,-1.613281 5.851563,-2.421875 9.125,-2.421875 5.5,0 9.882813,1.65625 13.15625,4.96875 3.28125,3.304688 4.921875,8.382812 4.921875,15.234375 V 0 h -7.703125 v -26.046875 c 0,-4.757813 -0.960937,-8.34375 -2.875,-10.75 -1.90625,-2.414063 -4.652344,-3.625 -8.234375,-3.625 -3.710938,0 -6.789062,1.4375 -9.234375,4.3125 -2.4375,2.875 -3.65625,6.96875 -3.65625,12.28125 V 0 H 38.09375 v -26.046875 c 0,-4.757813 -0.960938,-8.34375 -2.875,-10.75 -1.90625,-2.414063 -4.652344,-3.625 -8.234375,-3.625 -3.65625,0 -6.703125,1.4375 -9.140625,4.3125 -2.4375,2.875 -3.65625,6.96875 -3.65625,12.28125 V 0 Z m 0,0"
           id="path21" />
      </g>
    </g>
  </g>
  <g
     fill="#ffffff"
     fill-opacity="1"
     id="g27"
     transform="translate(-113.45641,-168.22576)">
    <g
       transform="translate(513.77582,276.13182)"
       id="g26">
      <g
         id="g25">
        <path
           d="m 6.859375,0 v -64.890625 h 7.78125 l 34.578125,52 v -52 h 7.796875 V 0 H 49.21875 L 14.640625,-52 V 0 Z m 0,0"
           id="path24" />
      </g>
    </g>
  </g>
  <g
     fill="#ffffff"
     fill-opacity="1"
     id="g30"
     transform="translate(-113.45641,-168.22576)">
    <g
       transform="translate(578.10549,276.13182)"
       id="g29">
      <g
         id="g28">
        <path
           d="m 6.859375,0 v -64.890625 h 7.78125 l 34.578125,52 v -52 h 7.796875 V 0 H 49.21875 L 14.640625,-52 V 0 Z m 0,0"
           id="path27" />
      </g>
    </g>
  </g>
  <g
     fill="#ffffff"
     fill-opacity="1"
     id="g33"
     transform="translate(-113.45641,-168.22576)">
    <g
       transform="translate(642.43516,276.13182)"
       id="g32">
      <g
         id="g31">
        <path
           d="m 27.0625,1.109375 c -4.386719,0 -8.277344,-1 -11.671875,-3 C 11.992188,-3.898438 9.320312,-6.695312 7.375,-10.28125 5.425781,-13.875 4.453125,-18.109375 4.453125,-22.984375 c 0,-4.820313 0.957031,-9.039063 2.875,-12.65625 1.914063,-3.613281 4.585937,-6.425781 8.015625,-8.4375 3.425781,-2.007813 7.394531,-3.015625 11.90625,-3.015625 4.445312,0 8.289062,1.007812 11.53125,3.015625 3.25,2.011719 5.738281,4.65625 7.46875,7.9375 1.738281,3.273437 2.609375,6.789063 2.609375,10.546875 0,0.6875 -0.01563,1.371094 -0.04687,2.046875 -0.03125,0.679687 -0.04687,1.449219 -0.04687,2.3125 h -36.625 c 0.1875,3.53125 1.003906,6.453125 2.453125,8.765625 1.457031,2.3125 3.28125,4.058594 5.46875,5.234375 2.195312,1.179687 4.53125,1.765625 7,1.765625 3.21875,0 5.90625,-0.738281 8.0625,-2.21875 2.164062,-1.488281 3.742188,-3.5 4.734375,-6.03125 H 47.5625 c -1.242188,4.261719 -3.605469,7.796875 -7.09375,10.609375 -3.492188,2.8125 -7.960938,4.21875 -13.40625,4.21875 z m 0,-41.625 c -3.710938,0 -7,1.132813 -9.875,3.390625 -2.867188,2.25 -4.515625,5.542969 -4.953125,9.875 H 41.15625 c -0.1875,-4.144531 -1.609375,-7.390625 -4.265625,-9.734375 -2.65625,-2.351563 -5.933594,-3.53125 -9.828125,-3.53125 z m 0,0"
           id="path30" />
      </g>
    </g>
  </g>
  <g
     fill="#ffffff"
     fill-opacity="1"
     id="g36"
     transform="translate(-113.45641,-168.22576)">
    <g
       transform="translate(694.0656,276.13182)"
       id="g35">
      <g
         id="g34">
        <path
           d="M 24.5625,0 C 20.363281,0 17.054688,-1.019531 14.640625,-3.0625 12.234375,-5.101562 11.03125,-8.78125 11.03125,-14.09375 v -25.3125 H 3.0625 v -6.578125 h 7.96875 l 1.015625,-11.03125 H 18.8125 v 11.03125 h 13.546875 v 6.578125 H 18.8125 v 25.3125 c 0,2.90625 0.585938,4.871094 1.765625,5.890625 1.175781,1.023437 3.25,1.53125 6.21875,1.53125 h 4.8125 V 0 Z m 0,0"
           id="path33" />
      </g>
    </g>
  </g>
  <g
     fill="#ffffff"
     fill-opacity="1"
     id="g39"
     transform="translate(-113.45641,-168.22576)">
    <g
       transform="translate(730.40168,276.13182)"
       id="g38">
      <g
         id="g37">
        <path
           d="m 27.53125,1.109375 c -4.761719,0 -8.902344,-0.867187 -12.421875,-2.59375 -3.523437,-1.726563 -6.242187,-4.132813 -8.15625,-7.21875 -1.917969,-3.09375 -2.875,-6.679687 -2.875,-10.765625 h 8.15625 c 0,2.53125 0.585937,4.867188 1.765625,7 1.175781,2.136719 2.890625,3.839844 5.140625,5.109375 2.257813,1.261719 5.054687,1.890625 8.390625,1.890625 4.382812,0 7.78125,-1.046875 10.1875,-3.140625 2.414062,-2.101563 3.625,-4.734375 3.625,-7.890625 0,-2.59375 -0.558594,-4.675781 -1.671875,-6.25 -1.105469,-1.582031 -2.601563,-2.867188 -4.484375,-3.859375 -1.886719,-0.988281 -4.054688,-1.851563 -6.5,-2.59375 -2.4375,-0.738281 -4.984375,-1.570313 -7.640625,-2.5 -5.011719,-1.726563 -8.726563,-3.875 -11.140625,-6.4375 -2.40625,-2.570313 -3.609375,-5.925781 -3.609375,-10.0625 -0.054687,-3.457031 0.753906,-6.53125 2.421875,-9.21875 1.664062,-2.695313 4.023438,-4.800781 7.078125,-6.3125 C 18.859375,-65.242188 22.492188,-66 26.703125,-66 c 4.132813,0 7.734375,0.773438 10.796875,2.3125 3.0625,1.542969 5.441406,3.671875 7.140625,6.390625 1.695313,2.71875 2.578125,5.8125 2.640625,9.28125 H 39.125 c 0,-1.789063 -0.464844,-3.566406 -1.390625,-5.328125 -0.929687,-1.769531 -2.335937,-3.207031 -4.21875,-4.3125 -1.886719,-1.113281 -4.25,-1.671875 -7.09375,-1.671875 -3.523437,-0.0625 -6.414063,0.835937 -8.671875,2.6875 -2.25,1.855469 -3.375,4.417969 -3.375,7.6875 0,2.78125 0.785156,4.917969 2.359375,6.40625 1.570313,1.480469 3.78125,2.699219 6.625,3.65625 2.84375,0.960937 6.117187,2.058594 9.828125,3.296875 3.09375,1.117188 5.875,2.414062 8.34375,3.890625 2.46875,1.480469 4.394531,3.398437 5.78125,5.75 1.394531,2.34375 2.09375,5.339844 2.09375,8.984375 0,3.09375 -0.804688,6.015625 -2.40625,8.765625 -1.605469,2.75 -4.03125,4.992187 -7.28125,6.71875 -3.242188,1.726563 -7.304688,2.59375 -12.1875,2.59375 z m 0,0"
           id="path36" />
      </g>
    </g>
  </g>
  <g
     fill="#ffffff"
     fill-opacity="1"
     id="g42"
     transform="translate(-113.45641,-168.22576)">
    <g
       transform="translate(784.44233,276.13182)"
       id="g41">
      <g
         id="g40">
        <path
           d="m 11.125,-56.171875 c -1.542969,0 -2.824219,-0.507813 -3.84375,-1.53125 C 6.257812,-58.722656 5.75,-60.007812 5.75,-61.5625 c 0,-1.476562 0.507812,-2.710938 1.53125,-3.703125 C 8.300781,-66.253906 9.582031,-66.75 11.125,-66.75 c 1.476562,0 2.742188,0.496094 3.796875,1.484375 1.050781,0.992187 1.578125,2.226563 1.578125,3.703125 0,1.554688 -0.527344,2.839844 -1.578125,3.859375 -1.054687,1.023437 -2.320313,1.53125 -3.796875,1.53125 z M 7.234375,0 v -45.984375 h 7.78125 V 0 Z m 0,0"
           id="path39" />
      </g>
    </g>
  </g>
  <g
     fill="#ffffff"
     fill-opacity="1"
     id="g45"
     transform="translate(-113.45641,-168.22576)">
    <g
       transform="translate(807.05967,276.13182)"
       id="g44">
      <g
         id="g43">
        <path
           d="M 6.390625,0 V -45.984375 H 13.4375 L 14,-39.3125 c 1.476562,-2.46875 3.453125,-4.378906 5.921875,-5.734375 2.476563,-1.363281 5.265625,-2.046875 8.359375,-2.046875 3.644531,0 6.78125,0.746094 9.40625,2.234375 2.625,1.480469 4.644531,3.734375 6.0625,6.765625 1.613281,-2.78125 3.828125,-4.972656 6.640625,-6.578125 2.8125,-1.613281 5.851563,-2.421875 9.125,-2.421875 5.5,0 9.882813,1.65625 13.15625,4.96875 3.28125,3.304688 4.921875,8.382812 4.921875,15.234375 V 0 h -7.703125 v -26.046875 c 0,-4.757813 -0.960937,-8.34375 -2.875,-10.75 -1.90625,-2.414063 -4.652344,-3.625 -8.234375,-3.625 -3.710938,0 -6.789062,1.4375 -9.234375,4.3125 -2.4375,2.875 -3.65625,6.96875 -3.65625,12.28125 V 0 H 38.09375 v -26.046875 c 0,-4.757813 -0.960938,-8.34375 -2.875,-10.75 -1.90625,-2.414063 -4.652344,-3.625 -8.234375,-3.625 -3.65625,0 -6.703125,1.4375 -9.140625,4.3125 -2.4375,2.875 -3.65625,6.96875 -3.65625,12.28125 V 0 Z m 0,0"
           id="path42" />
      </g>
    </g>
  </g>
</svg>
